<?xml version="1.0" encoding="UTF-8" standalone="no"?>
<svg
   xmlns:dc="http://purl.org/dc/elements/1.1/"
   xmlns:cc="http://creativecommons.org/ns#"
   xmlns:rdf="http://www.w3.org/1999/02/22-rdf-syntax-ns#"
   xmlns:svg="http://www.w3.org/2000/svg"
   xmlns="http://www.w3.org/2000/svg"
   xmlns:sodipodi="http://sodipodi.sourceforge.net/DTD/sodipodi-0.dtd"
   xmlns:inkscape="http://www.inkscape.org/namespaces/inkscape"
   sodipodi:docname="Icons.svg"
   inkscape:version="1.0 (4035a4fb49, 2020-05-01)"
   id="svg8"
   version="1.1"
   viewBox="0 0 210 297"
   height="297mm"
   width="210mm">
  <defs
     id="defs2" />
  <sodipodi:namedview
     inkscape:window-maximized="1"
     inkscape:window-y="-8"
     inkscape:window-x="-8"
     inkscape:window-height="987"
     inkscape:window-width="1680"
     showgrid="false"
     inkscape:document-rotation="0"
     inkscape:current-layer="layer1"
     inkscape:document-units="mm"
     inkscape:cy="126.73488"
     inkscape:cx="140.1136"
     inkscape:zoom="2.8284271"
     inkscape:pageshadow="2"
     inkscape:pageopacity="0.0"
     borderopacity="1.0"
     bordercolor="#666666"
     pagecolor="#ffffff"
     id="base" />
  <metadata
     id="metadata5">
    <rdf:RDF>
      <cc:Work
         rdf:about="">
        <dc:format>image/svg+xml</dc:format>
        <dc:type
           rdf:resource="http://purl.org/dc/dcmitype/StillImage" />
        <dc:title></dc:title>
      </cc:Work>
    </rdf:RDF>
  </metadata>
  <g
     id="layer1"
     inkscape:groupmode="layer"
     inkscape:label="Ebene 1">
    <g
       inkscape:export-ydpi="853.40625"
       inkscape:export-xdpi="853.40625"
       id="g1707">
      <g
         id="g88"
         transform="translate(4.7719494,16.489211)">
        <path
           d="M 36.980059,1.0000096 A 5,5 0 0 0 32,6.0002212 a 5,5 0 0 0 4.999696,4.9996948 5,5 0 0 0 5.000212,-4.9996948 5,5 0 0 0 -5.000212,-5.0002116 5,5 0 0 0 -0.01964,0 z m 0.01964,0.999939 a 3.9999999,3.9999999 0 0 1 4.00027,4.0002726 3.9999999,3.9999999 0 0 1 -4.000273,3.9997557 3.9999999,3.9999999 0 0 1 -3.999756,-3.9997557 3.9999999,3.9999999 0 0 1 3.999756,-4.0002726 z"
           style="fill:#000000;stroke:none;stroke-width:0.264583"
           id="circle75" />
        <rect
           transform="rotate(45)"
           y="-17.642136"
           x="29.662952"
           height="7"
           width="1"
           id="rect80"
           style="fill:#000000;stroke:none;stroke-width:0.201121" />
      </g>
      <circle
         r="0.5"
         style="fill:#000000;stroke:none;stroke-width:0.264583"
         id="circle100-2"
         cx="33.622032"
         cy="30.295843" />
    </g>
    <g
       inkscape:export-ydpi="853.40625"
       inkscape:export-xdpi="853.40625"
       id="g201">
      <g
         id="g61"
         transform="translate(0.09449409,17.481399)">
        <path
           transform="scale(0.26458333)"
           d="M 90.708984,3.7792969 V 7.5585938 A 18.897638,18.897638 0 0 1 109.60547,26.457031 18.897638,18.897638 0 0 1 90.708984,45.353516 18.897638,18.897638 0 0 1 71.810547,26.457031 H 68.03125 A 22.677165,22.677165 0 0 0 90.708984,49.134766 22.677165,22.677165 0 0 0 113.38672,26.457031 22.677165,22.677165 0 0 0 90.708984,3.7792969 Z"
           style="fill:#000000;stroke:none;stroke-width:0.999999"
           id="circle46" />
        <path
           transform="matrix(1.4185301,0,0,1.2284832,-5.9036521,-0.0095965)"
           inkscape:transform-center-x="0.50000109"
           d="M 21.084256,2.4905482 18.969391,1.2695301 21.084256,0.04851226 Z"
           inkscape:randomized="0"
           inkscape:rounded="0"
           inkscape:flatsided="true"
           sodipodi:arg2="2.0943951"
           sodipodi:arg1="1.0471976"
           sodipodi:r2="0.70495504"
           sodipodi:r1="1.4099101"
           sodipodi:cy="1.2695302"
           sodipodi:cx="20.379301"
           sodipodi:sides="3"
           id="path57"
           style="fill:#000000;stroke:none;stroke-width:0.264583"
           sodipodi:type="star" />
      </g>
      <circle
         cy="24.463512"
         cx="18.595547"
         id="circle100-2-4"
         style="fill:#000000;stroke:none;stroke-width:0.264583"
         r="0.5" />
    </g>
    <g
       inkscape:export-ydpi="853.40625"
       inkscape:export-xdpi="853.40625"
       id="g1675"
       transform="matrix(1,0,0,0.92294853,-0.0024084,2.0653607)">
      <g
         id="g177">
        <rect
           y="17.867188"
           x="4.8426337"
           height="12"
           width="1"
           id="rect10"
           style="fill:#000000;stroke:none;stroke-width:0.157715" />
        <circle
           cy="29.842047"
           cx="5.3425307"
           id="circle100-2-4-2"
           style="fill:#000000;stroke:none;stroke-width:0.264583"
           r="0.5" />
        <circle
           r="0.5"
           style="fill:#000000;stroke:none;stroke-width:0.264583"
           id="circle100-2-4-2-4"
           cx="5.3432775"
           cy="17.861908" />
      </g>
      <g
         id="g185"
         transform="translate(5.0004693)">
        <rect
           style="fill:#000000;stroke:none;stroke-width:0.157715"
           id="rect179"
           width="1"
           height="12"
           x="4.8426337"
           y="17.867188" />
        <circle
           r="0.5"
           style="fill:#000000;stroke:none;stroke-width:0.264583"
           id="circle181"
           cx="5.3425307"
           cy="29.842047" />
        <circle
           cy="17.861908"
           cx="5.3432775"
           id="circle183"
           style="fill:#000000;stroke:none;stroke-width:0.264583"
           r="0.5" />
      </g>
    </g>
    <path
       inkscape:export-ydpi="853.40625"
       inkscape:export-xdpi="853.40625"
       d="m 48.006038,35.089727 a 1,1 0 0 0 -0.986504,0.99994 1,1 0 0 0 10e-4,0.04237 v 10.929565 h -10.966773 -0.01344 -0.01964 v 5.16e-4 a 1,1 0 0 0 -0.966867,0.999423 1,1 0 0 0 0.966867,0.998906 v 10e-4 h 0.03307 0.01395 10.952821 v 10.907345 a 1,1 0 0 0 -0.0016,0.05736 1,1 0 0 0 0.999937,1.000456 1,1 0 0 0 0.998906,-0.965317 h 0.0026 V 49.061486 h 11.000361 v -0.0021 a 1,1 0 0 0 0.96635,-0.999421 1,1 0 0 0 -0.99994,-0.99994 1,1 0 0 0 -0.0568,0.0016 h -10.90989 v -11.00038 h -0.0016 a 1,1 0 0 0 -0.999421,-0.971518 1,1 0 0 0 -0.01344,0 z"
       style="fill:#000000;stroke:none;stroke-width:0.173855"
       id="rect1677" />
    <g
       inkscape:export-ydpi="853.40625"
       inkscape:export-xdpi="853.40625"
       transform="translate(-31.875986,-1.957605)"
       id="g1655">
      <path
         id="path98"
         style="fill:#000000;stroke:none;stroke-width:0.264583"
         d="M 88.000149,20 A 5.9999998,5.9999998 0 0 0 82,26.000151 5.9999998,5.9999998 0 0 0 88.000149,32.000302 5.9999998,5.9999998 0 0 0 94.000301,26.000151 5.9999998,5.9999998 0 0 0 88.000149,20 Z m -0.01964,0.999939 a 5,5 0 0 1 0.01964,0 5,5 0 0 1 4.999697,5.000212 5,5 0 0 1 -4.999697,4.999695 5,5 0 0 1 -5.000212,-4.999695 5,5 0 0 1 4.980575,-5.000212 z" />
      <g
         id="g222"
         transform="rotate(45,88.212851,25.40402)">
        <path
           id="circle100"
           style="fill:#000000;stroke:none;stroke-width:0.264583"
           d="m 88.899185,25.891371 a 0.5,0.5 0 0 1 -0.5,0.5 0.5,0.5 0 0 1 -0.5,-0.5 0.5,0.5 0 0 1 0.5,-0.5 0.5,0.5 0 0 1 0.5,0.5" />
        <g
           inkscape:transform-center-y="-2.5011393"
           inkscape:transform-center-x="-0.0041447939"
           id="g212">
          <path
             id="rect209"
             style="fill:#000000;stroke:none;stroke-width:0.333705"
             d="m 87.898437,20.904423 h 1 v 5 h -1 z" />
        </g>
      </g>
      <path
         id="path247"
         style="fill:#000000;stroke:none;stroke-width:0.999999"
         d="m 332.59766,83.150391 c -5.92406,-0.07192 -11.6501,3.713328 -13.90625,9.191406 -0.79731,1.867767 -1.21224,3.896911 -1.21094,5.927734 0.001,-10e-7 0.003,2e-6 0.004,0 a 1.8897638,1.8897638 0 0 0 0,0.01953 1.8897638,1.8897638 0 0 0 1.88867,1.890628 1.8897638,1.8897638 0 0 0 1.89062,-1.890628 1.8897638,1.8897638 0 0 0 -0.002,-0.08008 c -0.0458,-4.836551 3.36947,-9.437541 8.01758,-10.783203 2.10166,-0.648804 4.38675,-0.642751 6.49609,-0.02344 0.005,0.0015 0.0105,0.0024 0.0156,0.0039 a 1.8897638,1.8897638 0 0 0 0.47656,0.0625 1.8897638,1.8897638 0 0 0 1.89062,-1.890625 1.8897638,1.8897638 0 0 0 -1.55468,-1.859375 v -0.0039 c -1.30516,-0.359188 -2.65177,-0.565405 -4.00586,-0.564453 z m 12.09765,7.871093 a 1.8897638,1.8897638 0 0 0 -1.88867,1.888672 1.8897638,1.8897638 0 0 0 0.23828,0.916016 l -0.0117,0.0059 c 0.60587,1.26172 0.78552,2.79221 0.9336,4.103516 a 1.8897638,1.8897638 0 0 0 -0.0293,0.332031 1.8897638,1.8897638 0 0 0 1.88867,1.890622 1.8897638,1.8897638 0 0 0 1.89063,-1.890622 1.8897638,1.8897638 0 0 0 -0.01,-0.193359 1.8897638,1.8897638 0 0 0 0,-0.0039 c -0.0242,-1.950813 -0.43605,-3.890866 -1.19531,-5.6875 -8e-4,-0.0019 -0.001,-0.004 -0.002,-0.0059 a 1.8897638,1.8897638 0 0 0 -1.81446,-1.355469 z"
         transform="scale(0.26458333)" />
      <path
         d="m 88.353553,26.233941 a 0.5,0.5 0 0 1 -0.707107,0 0.5,0.5 0 0 1 0,-0.707107 0.5,0.5 0 0 1 0.707107,0 0.5,0.5 0 0 1 0,0.707107"
         style="fill:#000000;stroke:none;stroke-width:0.264583"
         id="circle292" />
    </g>
    <path
       inkscape:export-ydpi="853.40625"
       inkscape:export-xdpi="853.40625"
       d="m 23.125062,34.365585 a 1,1 0 0 0 -0.71365,0.292486 1,1 0 0 0 -0.0098,0.0098 1,1 0 0 0 -0.03359,0.03617 L 19.579559,37.4925 18.165176,38.906886 2.9635198,54.108542 a 1,1 0 0 0 -0.00258,0.0021 1,1 0 0 0 -0.351401,0.761193 1,1 0 0 0 0,0.01757 h -5.16e-4 v 4.802806 A 1,1 0 0 0 2.5981502,59.83793 1,1 0 0 0 3.59809,60.837869 1,1 0 0 0 3.7438172,60.827016 H 8.542491 v -0.0026 a 1,1 0 0 0 0.017571,5.16e-4 1,1 0 0 0 0.6945312,-0.28112 v 0.0016 L 24.529111,45.270892 25.943496,43.856509 28.730405,41.0696 a 1,1 0 0 0 0.04444,-0.04134 1,1 0 0 0 0,-1.413867 1,1 0 0 0 -0.04599,-0.04341 l -4.827095,-4.82661 a 1,1 0 0 0 -0.07648,-0.0863 1,1 0 0 0 -0.700217,-0.292486 z m -0.01034,2.420006 3.535702,3.535185 -2.121318,2.121318 -3.535183,-3.535185 z m -3.535185,3.535701 3.535701,3.535701 L 8.1445815,58.827139 H 4.6088804 v -3.535701 z"
       style="fill:#000000;stroke:none;stroke-width:0.241619"
       id="rect1753" />
  </g>
</svg>
